<?xml version="1.0" encoding="UTF-8"?><svg id="Laag_2" xmlns="http://www.w3.org/2000/svg" xmlns:xlink="http://www.w3.org/1999/xlink" viewBox="0 0 97.23 83.63"><defs><style>.cls-1{fill:#dfe1c5;}.cls-2{clip-path:url(#clippath);}.cls-3{fill:none;}</style><clipPath id="clippath"><rect class="cls-3" width="97.23" height="83.63"/></clipPath></defs><g id="Laag_1-2"><g class="cls-2"><path class="cls-1" d="M80.6,21.17c.03,.26,.08,.59,.16,.97,.09,.43,.21,.85,.36,1.27,.18,.5,.4,.99,.65,1.46,.3,.54,.64,1.05,1.04,1.53,.11,.13,.22,.25,.33,.37,.11,.12,.23,.23,.35,.33,.12,.1,.24,.2,.36,.3,.12,.1,.24,.19,.37,.28-.15-.24-.28-.48-.4-.73-.15-.31-.29-.64-.41-.97-.14-.37-.26-.77-.38-1.23s-.23-.97-.32-1.53c-.07-.43-.1-.86-.06-1.29,.03-.36,.08-.72,.15-1.08,.06-.31,.1-.63,.11-.96,0-.31-.05-.63-.18-.92l-.08-.18-.08-.15-.09-.13-.09-.11h.04l.06,.02,.08,.04,.1,.05h-.02s-.02-.01-.02-.01h-.04c.48,.33,.9,.73,1.28,1.17,.65,.73,1.18,1.56,1.56,2.46,.48,1.1,.67,2.3,.57,3.5-.17,1.55-.75,3.03-1.69,4.29,0,0,.05,.1,.11,.26,.07,.16,.15,.37,.24,.57,.08,.21,.17,.42,.23,.57,.06,.16,.1,.26,.1,.26l.15-.22c.1-.12,.23-.28,.36-.43l.38-.44c.11-.13,.18-.22,.2-.24,.18-.26,.35-.54,.51-.82,.16-.29,.31-.58,.45-.9,.14-.32,.26-.64,.37-.98,.11-.35,.2-.7,.28-1.06,.09-.44,.14-.88,.15-1.33,.01-.48,0-.96-.06-1.44-.06-.51-.15-1.01-.29-1.51-.14-.52-.31-1.03-.53-1.53-.35-.82-.81-1.58-1.37-2.26-.63-.8-1.31-1.57-2.02-2.3-.69-.71-1.35-1.33-1.84-1.77-.25-.25-.53-.47-.82-.67,0,0,.04,.1,.08,.28,.07,.27,.12,.54,.15,.81,.05,.41,.07,.83,.05,1.24-.02,.54-.09,1.08-.22,1.61-.07,.29-.14,.57-.2,.85-.07,.27-.12,.55-.17,.83-.05,.29-.08,.59-.09,.88-.01,.33,0,.66,.04,.99"/><path class="cls-1" d="M96.08,40.17s-.04,.11-.13,.3c-.13,.28-.28,.55-.45,.81-.26,.4-.55,.78-.87,1.13-.43,.47-.89,.9-1.39,1.29-.28,.21-.55,.42-.82,.62-.27,.21-.52,.41-.77,.63-.26,.23-.5,.47-.72,.72-.25,.28-.47,.59-.68,.9-.16,.25-.35,.58-.54,.97-.22,.44-.41,.9-.57,1.37-.19,.56-.33,1.14-.41,1.73-.1,.68-.13,1.36-.09,2.04,.01,.19,.03,.37,.06,.55,.03,.18,.06,.35,.1,.52,.04,.17,.09,.34,.14,.5,.05,.17,.1,.33,.16,.49,.03-.31,.08-.62,.14-.92,.08-.38,.18-.76,.3-1.13,.15-.46,.32-.91,.52-1.35,.22-.49,.48-1.02,.8-1.58,.24-.43,.54-.83,.88-1.19,.3-.3,.61-.59,.94-.86,.29-.24,.56-.5,.81-.78,.23-.27,.4-.59,.49-.93l.05-.21,.03-.19v-.17s0-.15,0-.15l.03,.02,.05,.06,.05,.09,.06,.11v-.02s-.03-.02-.03-.02v-.02s-.03-.02-.03-.02c.22,.6,.36,1.23,.41,1.87,.1,1.07,.02,2.16-.26,3.2-.34,1.32-1.02,2.53-1.98,3.51-1.34,1.31-2.99,2.26-4.8,2.77-.04,.16-.09,.33-.13,.49-.04,.16-.09,.33-.14,.49-.05,.16-.09,.33-.14,.49-.05,.16-.1,.33-.15,.49,.1-.04,.2-.08,.31-.09,.18-.05,.43-.1,.68-.15l.69-.15c.2-.04,.34-.08,.38-.09,.37-.12,.74-.26,1.11-.41,.37-.16,.74-.33,1.11-.52,.37-.2,.73-.41,1.08-.64,.36-.24,.71-.5,1.04-.78,.4-.34,.78-.71,1.12-1.11,.36-.42,.69-.86,.99-1.33,.31-.49,.58-1.01,.81-1.54,.24-.55,.44-1.12,.59-1.71,.25-.95,.35-1.93,.3-2.9-.04-1.12-.14-2.23-.31-3.33-.16-1.06-.35-2.03-.51-2.73-.07-.38-.17-.75-.32-1.11"/><path class="cls-1" d="M73.94,23.25c-.55,.07-1.1,.11-1.66,.12-.48,.01-.88,0-1.2-.04-.32-.03-.58-.06-.74-.09l-.25-.06c.17,.22,.32,.45,.44,.69,.26,.43,.6,1.01,.99,1.65,.39,.63,.81,1.31,1.23,1.93,.36,.54,.75,1.06,1.19,1.54,.3,.28,.62,.55,.96,.79,.33,.25,.68,.47,1.04,.68,.36,.2,.73,.39,1.11,.55,.37,.16,.76,.31,1.15,.43,.34,.1,.68,.2,1.02,.28,.34,.08,.68,.15,1.02,.22,.34,.06,.68,.12,1.03,.16,.34,.04,.68,.08,1.02,.11h.98c.23,.01,.45,.02,.62,.03,.1,0,.19,.01,.29,.04,0,0-.04-.1-.11-.25-.07-.15-.16-.35-.25-.55-.09-.2-.18-.4-.25-.55-.07-.15-.12-.25-.12-.25-1.72-.01-3.43-.36-5.02-1.03-1.05-.45-1.99-1.13-2.73-2-.5-.59-.9-1.26-1.17-1.99-.21-.55-.28-.93-.33-.97v-.05s.08,.09,.08,.09l.09,.1,.11,.1,.14,.1c.24,.17,.51,.28,.79,.32,.32,.05,.64,.08,.97,.1,.37,.02,.74,.06,1.11,.14,.42,.09,.82,.24,1.19,.46,.44,.25,.85,.54,1.24,.86,.32,.26,.61,.55,.88,.87,.22,.25,.41,.53,.58,.82,.13,.23,.25,.46,.34,.71,.01-.15,.02-.3,.02-.45,0-.15,0-.3-.01-.46-.01-.16-.03-.31-.06-.47-.03-.16-.07-.32-.12-.47-.19-.58-.46-1.13-.81-1.63-.31-.44-.68-.83-1.09-1.17-.34-.29-.71-.54-1.1-.76-.29-.16-.59-.3-.9-.42-.32-.12-.64-.21-.98-.26-.3-.05-.61-.08-.92-.08-.3,0-.6,.01-.89,.04-.3,.03-.6,.06-.91,.1"/><path class="cls-1" d="M68.1,3.99s.07,.09,.19,.26c.16,.24,.31,.5,.44,.76,.2,.4,.37,.82,.51,1.24,.18,.55,.3,1.11,.38,1.69,.04,.32,.08,.62,.12,.92,.04,.3,.08,.59,.14,.89,.06,.31,.14,.61,.24,.91,.11,.34,.24,.66,.4,.98,.12,.25,.29,.57,.51,.92,.24,.4,.51,.79,.8,1.16,.35,.45,.73,.87,1.14,1.26,.47,.45,.98,.85,1.52,1.21,.15,.1,.3,.18,.45,.26s.3,.15,.45,.22c.15,.06,.3,.13,.45,.19,.15,.06,.3,.11,.44,.16-.19-.17-.41-.37-.63-.61-.23-.24-.47-.52-.72-.84-.25-.32-.52-.69-.8-1.12-.27-.43-.55-.9-.85-1.44-.22-.41-.39-.83-.51-1.28-.11-.4-.18-.78-.24-1.14-.05-.34-.13-.67-.24-1-.11-.32-.28-.62-.51-.87l-.15-.15-.14-.13-.13-.1-.12-.08h.04s.07-.01,.07-.01h.1s.11,.03,.11,.03h-.08c.58,.19,1.14,.44,1.66,.77,.89,.53,1.69,1.19,2.37,1.97,.85,.96,1.46,2.1,1.77,3.34,.38,1.61,.34,3.29-.13,4.88,0,0,.08,.09,.2,.22,.11,.14,.27,.32,.41,.5l.41,.5c.11,.14,.19,.23,.18,.23,.01-.09,.04-.18,.07-.27,.05-.15,.12-.35,.2-.55,.07-.2,.15-.41,.21-.57,.06-.16,.1-.28,.11-.31,.08-.32,.15-.66,.21-1,.06-.34,.1-.69,.12-1.05,.02-.37,.03-.74,.02-1.11-.01-.39-.05-.77-.11-1.16-.07-.47-.17-.94-.31-1.4-.15-.49-.33-.97-.55-1.44-.23-.49-.5-.97-.8-1.43-.32-.48-.66-.94-1.04-1.37-.61-.71-1.33-1.33-2.11-1.83-.9-.6-1.82-1.16-2.78-1.66-.94-.48-1.8-.89-2.44-1.17-.34-.17-.69-.31-1.05-.4"/><polygon class="cls-1" points="71.31 8.27 71.48 8.27 71.4 8.26 71.35 8.25 71.31 8.25 71.3 8.26 71.31 8.27"/><polygon class="cls-1" points="94.09 45.32 94.11 45.36 94.14 45.39 94.17 45.43 94.19 45.47 94.16 45.39 94.13 45.34 94.1 45.31 94.09 45.32 94.09 45.32"/><path class="cls-1" d="M84.61,61.89c.09-.21,.19-.41,.29-.63,.1-.22,.19-.42,.29-.63s.18-.42,.26-.64c.08-.22,.16-.43,.23-.66l.9-2.63,.61-2.7c.75-3.6,.94-7.29,.56-10.94-.19-1.81-.52-3.6-.99-5.35-.46-1.74-1.08-3.44-1.82-5.08,.44,1.73,.76,3.48,.98,5.24,.21,1.75,.32,3.5,.3,5.26,0,1.75-.13,3.49-.37,5.22-.23,1.72-.58,3.42-1.04,5.09-.45,1.66-1.01,3.29-1.68,4.88-1.34,3.16-3.09,6.13-5.21,8.83-1.06,1.34-2.21,2.61-3.44,3.8-.6,.61-1.24,1.19-1.89,1.74-.65,.55-1.33,1.08-2.02,1.58s-1.4,.98-2.12,1.44-1.46,.9-2.2,1.33c-.75,.42-1.52,.81-2.29,1.17-.77,.36-1.57,.68-2.38,.98-.8,.3-1.62,.58-2.44,.84-.82,.26-1.65,.5-2.49,.73-.42,.07-.85,.15-1.27,.24-.42,.08-.85,.17-1.28,.24s-.85,.15-1.28,.21c-.43,.06-.86,.1-1.29,.12-.43,.05-.86,.1-1.3,.14-.43,.04-.87,.07-1.3,.09-.44,.02-.87,.03-1.31,.04-.44,0-.87,0-1.31-.03-.88-.02-1.75-.07-2.63-.15-.88-.08-1.75-.19-2.63-.33-.87-.14-1.74-.3-2.61-.5-.87-.19-1.74-.41-2.59-.65,.8,.4,1.62,.77,2.46,1.11,.84,.33,1.69,.63,2.56,.89,.87,.26,1.74,.49,2.63,.68,.88,.19,1.78,.35,2.69,.48,.45,.07,.9,.12,1.36,.16,.46,.04,.91,.07,1.37,.09,.46,.02,.91,.03,1.37,.04,.46,0,.92,0,1.37,0,.46,.02,.92,.01,1.38-.02,.46-.03,.92-.07,1.37-.12,.46-.05,.91-.11,1.37-.17,.46-.06,.91-.12,1.37-.16,.91-.17,1.81-.36,2.7-.59,.9-.23,1.78-.49,2.66-.78,.88-.29,1.75-.61,2.6-.97,.86-.36,1.7-.74,2.53-1.15,.82-.44,1.62-.9,2.41-1.38,.79-.48,1.57-.99,2.33-1.53,.76-.54,1.49-1.1,2.21-1.69,.72-.59,1.41-1.21,2.07-1.86,.65-.66,1.28-1.34,1.9-2.04,.62-.69,1.21-1.41,1.78-2.14,.57-.73,1.12-1.48,1.63-2.26,.51-.78,.99-1.57,1.42-2.39,.13-.2,.24-.4,.35-.6,.11-.2,.21-.41,.3-.62,.1-.21,.19-.42,.29-.63,.09-.21,.19-.42,.29-.63"/><path class="cls-1" d="M55.29,10.93c.29,.03,.59-.01,.86-.12,.29-.11,.57-.24,.85-.38,.32-.16,.65-.3,.98-.41,.41-.13,.84-.19,1.26-.19,.52,0,1.04,.04,1.56,.12,.43,.07,.85,.17,1.27,.3,.34,.11,.67,.24,.99,.4,.25,.12,.49,.26,.72,.41-.08-.13-.17-.25-.27-.38-.1-.12-.19-.25-.3-.37-.11-.12-.22-.24-.35-.35-.13-.12-.26-.23-.4-.33-.53-.39-1.1-.71-1.71-.95-.52-.21-1.07-.36-1.62-.45-.46-.08-.93-.11-1.4-.1-.34,0-.68,.04-1.01,.09-.53,.08-1.05,.23-1.54,.44-.41,.18-.76,.38-1.14,.56-.41,.21-.85,.36-1.29,.45-.66,.12-1.34,.15-2.01,.1-.1,0-.2-.01-.3-.03-.1-.02-.2-.03-.29-.06-.09-.02-.18-.05-.28-.08-.09-.03-.18-.06-.26-.09,.11,.12,.23,.26,.37,.41,.14,.15,.29,.3,.46,.46,.17,.16,.35,.33,.54,.5,.19,.17,.4,.35,.63,.53,.07,.05,.27,.2,.57,.42,.3,.21,.71,.49,1.2,.79,.54,.33,1.1,.64,1.67,.91,.65,.31,1.31,.56,2,.77,1.21,.4,2.49,.55,3.77,.43,1.15-.1,2.27-.35,3.36-.73,.84-.29,1.65-.65,2.43-1.06,.6-.31,.96-.54,.99-.54l-.39-.25-.39-.25-.39-.24-.4-.24c-1.41,.81-2.98,1.32-4.6,1.5-1.18,.12-2.36,0-3.49-.35-.8-.25-1.56-.61-2.27-1.06-.54-.35-.86-.62-.94-.63l.03,.05,.04,.05,.03,.05,.04,.04-.07-.07-.06-.06-.04-.05v-.03s.1,.04,.1,.04l.14,.03,.16,.03,.18,.02"/><path class="cls-1" d="M49.4,2.21c-.52,.04-1.05,.12-1.55,.25-.47,.12-.93,.27-1.38,.45-.41,.16-.78,.33-1.07,.48s-.52,.27-.65,.34c-.13,.07-.3,.16-.47,.26-.17,.09-.35,.19-.54,.28-.21,.1-.42,.19-.64,.26-.25,.08-.51,.15-.77,.2,.25,.09,.49,.2,.73,.32,.2,.11,.4,.23,.59,.36,.18,.12,.34,.25,.49,.37,.15,.12,.29,.23,.41,.33,.12,.1,.32,.25,.58,.44,.26,.19,.6,.41,.98,.65,.41,.25,.85,.47,1.29,.67,.48,.22,.98,.39,1.49,.51,.15,.03,.38,.08,.65,.12,.32,.05,.64,.08,.96,.09,.4,0,.79-.02,1.19-.08,.46-.07,.91-.2,1.34-.37,.24-.1,.47-.21,.7-.33,.21-.11,.41-.24,.6-.38,.18-.13,.35-.26,.51-.4,.15-.14,.3-.28,.42-.41l-.21,.14-.22,.13-.24,.12c-.09,.04-.17,.07-.27,.11-.22,.08-.46,.14-.69,.19-.21,.04-.43,.06-.64,.07-.19,0-.37,0-.56-.02-.17-.01-.33-.03-.46-.06l-.15-.02-.14-.02-.12-.02-.1-.02c-.33-.07-.65-.17-.96-.29-.28-.11-.56-.24-.83-.38-.24-.14-.46-.26-.63-.37-.17-.11-.3-.2-.38-.25l-.21-.14-.23-.16c-.08-.05-.17-.11-.26-.16-.1-.05-.2-.11-.31-.16h.01l-.08-.04-.13-.1-.13-.09-.08-.05c.17-.03,.34-.06,.51-.11,.14-.04,.29-.09,.42-.15,.13-.05,.25-.11,.36-.17,.11-.05,.21-.1,.31-.15,.1-.05,.23-.12,.43-.2,.19-.09,.43-.18,.7-.28,.3-.1,.6-.19,.9-.26,.34-.08,.68-.12,1.03-.14,.1,0,.25,0,.43,0,.21,0,.43,0,.64,.03,.26,.04,.51,.09,.76,.17,.29,.09,.57,.21,.83,.36l.07,.04,.06,.04,.06,.04,.06,.04c-.09-.1-.19-.2-.29-.3-.1-.1-.21-.2-.32-.29-.11-.1-.23-.19-.36-.28-.13-.09-.26-.18-.41-.27-.4-.24-.82-.44-1.26-.59-.38-.13-.76-.22-1.16-.28-.32-.05-.64-.07-.96-.08-.28,0-.5,0-.66,.02m-1.97,2.99l-.06-.02-.05-.02-.06-.02-.06-.02h.04l.05,.02,.06,.03,.07,.03"/><path class="cls-1" d="M62.15,1.24c-.9-.4-1.83-.71-2.8-.91-.83-.17-1.67-.28-2.52-.32-.62-.03-1.25-.03-1.88,.02-.3,.02-.59,.05-.88,.1-.35,.06-.68,.12-.99,.2-.31,.07-.59,.15-.85,.23-.26,.08-.5,.17-.71,.26-.21,.09-.4,.17-.57,.25h.33c.11,0,.23,.02,.35,.03,.12,.01,.24,.03,.35,.06,.12,.02,.24,.05,.36,.09,.76,.24,1.49,.57,2.18,.99,.43,.28,.81,.62,1.13,1.02,.28,.35,.5,.72,.79,1.11,.33,.46,.71,.88,1.15,1.24,.21,.19,.48,.43,.81,.69,.38,.29,.77,.57,1.18,.82,.49,.3,1,.57,1.53,.8,.61,.27,1.24,.48,1.89,.64,.18,.04,.35,.08,.52,.11,.17,.03,.34,.05,.51,.07,.17,.02,.33,.03,.5,.04,.16,0,.32,.01,.48,.01-.24-.09-.51-.21-.81-.36s-.62-.33-.98-.55c-.35-.22-.73-.48-1.14-.79-.41-.31-.84-.66-1.3-1.06-.35-.3-.66-.64-.93-1.02-.24-.34-.43-.66-.61-.97-.16-.3-.35-.58-.56-.84-.22-.26-.49-.48-.79-.63l-.2-.09-.18-.07-.17-.05-.15-.03,.04-.02,.07-.03,.1-.02,.12-.02h-.08c.64-.01,1.28,.06,1.91,.2,1.04,.21,2.05,.57,2.99,1.08,1.13,.6,2.09,1.47,2.81,2.52,.87,1.35,1.35,2.91,1.37,4.51l.41,.24,.41,.24,.4,.25,.4,.25c.07-.36,.09-.73,.08-1.1,0-.94-.12-1.88-.37-2.79-.33-1.25-.92-2.41-1.73-3.42-1.07-1.29-2.44-2.3-3.99-2.95"/><path class="cls-1" d="M78.4,35.51c.17,.23,.4,.42,.66,.53,.3,.14,.61,.26,.93,.37,.36,.12,.71,.27,1.05,.45,.38,.2,.72,.46,1.01,.78,.34,.37,.63,.77,.9,1.19,.21,.35,.39,.71,.53,1.09,.11,.31,.2,.63,.25,.96,.04,.26,.06,.52,.06,.79,.07-.14,.14-.28,.21-.43,.07-.15,.12-.3,.17-.45,.05-.15,.1-.31,.13-.47,.04-.17,.06-.33,.08-.5,.05-.61,0-1.22-.14-1.81-.13-.5-.33-.99-.59-1.43-.22-.38-.49-.73-.79-1.05-.22-.24-.47-.46-.73-.66-.27-.21-.56-.38-.87-.53-.29-.13-.58-.25-.89-.33-.3-.09-.61-.15-.92-.21-.31-.06-.63-.11-.96-.16-.57-.09-1.15-.21-1.71-.35-.4-.1-.8-.23-1.19-.38-.24-.09-.47-.19-.7-.3l-.23-.12c.07,.26,.12,.52,.15,.79,.07,.48,.17,1.14,.29,1.86,.12,.72,.26,1.49,.43,2.21,.13,.62,.31,1.23,.55,1.82,.19,.36,.4,.71,.63,1.04,.23,.33,.49,.65,.76,.95,.28,.3,.57,.58,.88,.85,.31,.27,.64,.51,.98,.74,.3,.2,.6,.38,.91,.55,.31,.17,.62,.34,.94,.5,.32,.16,.64,.31,.97,.45,.32,.14,.65,.27,.99,.4l.34,.1c.18,.05,.42,.12,.64,.19,.22,.07,.45,.14,.61,.2,.1,.02,.19,.06,.28,.12,0-.15,0-.3,0-.44,0-.15,0-.29,0-.44,0-.15-.01-.29-.02-.44,0-.15-.01-.29-.02-.44-1.7-.48-3.28-1.31-4.64-2.42-.86-.72-1.52-1.66-1.92-2.71-.26-.72-.38-1.49-.35-2.25,.02-.59,.11-.98,.08-1.03l-.03,.05-.03,.05-.03,.05-.03,.05,.03-.1,.03-.08,.02-.06,.03-.03,.03,.11,.05,.12,.07,.13,.09,.14"/><polygon class="cls-1" points="57.27 2.29 57.32 2.27 57.37 2.26 57.41 2.25 57.45 2.24 57.37 2.25 57.31 2.26 57.27 2.27 57.27 2.28 57.27 2.29"/><path class="cls-1" d="M84.04,52.45c.35-.57,.59-1.19,.72-1.85,.1-.51,.1-1.03,.02-1.54-.07-.41-.21-.81-.4-1.18-.14-.28-.32-.54-.53-.78-.22-.26-.47-.48-.75-.68-.27-.19-.56-.35-.86-.48-.31-.14-.63-.26-.95-.36-.33-.11-.68-.21-1.03-.32-.61-.18-1.21-.4-1.8-.64-.41-.17-.81-.36-1.2-.58-.23-.12-.45-.26-.66-.41l-.2-.16c-.04,.28-.12,.55-.21,.82-.15,.5-.36,1.17-.57,1.92-.21,.74-.43,1.54-.58,2.29-.15,.63-.23,1.28-.25,1.93,.04,.39,.12,.78,.22,1.15,.11,.37,.25,.74,.42,1.09,.17,.35,.38,.69,.6,1.01,.23,.32,.49,.63,.77,.92,.25,.25,.5,.49,.78,.72,.27,.23,.55,.45,.84,.67,.29,.21,.59,.42,.9,.62,.31,.2,.62,.39,.94,.57l.35,.16c.18,.09,.42,.19,.64,.3s.45,.22,.61,.3c.16,.09,.27,.15,.26,.17,.07-.15,.14-.3,.21-.45,.07-.15,.14-.3,.21-.45,.07-.15,.13-.3,.2-.45,.06-.15,.13-.3,.19-.45-1.64-.71-3.07-1.83-4.16-3.24-.64-.88-.96-1.97-.89-3.06,.07-.81,.3-1.6,.69-2.32,.31-.59,.6-.97,.59-1.02l-.06,.05-.06,.05-.05,.05-.05,.04,.08-.09,.08-.07,.06-.05,.05-.03-.02,.11v.13l.02,.14,.04,.15c.09,.27,.27,.5,.51,.65,.29,.19,.59,.37,.9,.52,.35,.18,.68,.39,.99,.63,.33,.25,.6,.58,.79,.95,.21,.43,.36,.88,.45,1.35,.08,.39,.1,.79,.08,1.19-.02,.34-.08,.68-.18,1.01-.08,.28-.19,.54-.32,.8,.15-.13,.3-.26,.45-.4,.15-.14,.29-.28,.41-.42s.26-.3,.38-.45c.12-.15,.23-.31,.33-.48"/><path class="cls-1" d="M87.42,32.81c-.07,.33-.12,.67-.15,1.01-.04,.46-.06,.91-.04,1.37,.05,1.2,.32,2.37,.81,3.47,.07,.16,.15,.32,.24,.47,.08,.15,.17,.3,.26,.43,.09,.14,.19,.27,.28,.4,.1,.13,.2,.26,.3,.38-.08-.28-.14-.56-.19-.85-.06-.36-.1-.72-.12-1.08-.02-.45-.02-.89,0-1.34,.03-.49,.08-1.03,.17-1.62,.07-.45,.19-.89,.37-1.3,.16-.35,.33-.7,.53-1.03,.17-.29,.32-.6,.45-.92,.12-.31,.16-.64,.12-.97l-.03-.2-.04-.18-.05-.15-.06-.14,.04,.02,.06,.04,.08,.06,.09,.08-.08-.06c.39,.47,.71,.99,.97,1.54,.45,.91,.73,1.9,.85,2.9,.14,1.24-.05,2.5-.55,3.65-.72,1.53-1.83,2.84-3.23,3.8,.02,.16,.04,.31,.05,.47,.02,.15,.03,.31,.04,.47,.01,.16,.03,.31,.04,.47,.01,.16,.02,.31,.04,.47l.24-.17c.14-.09,.34-.21,.53-.33l.55-.33c.16-.09,.27-.16,.29-.19,.28-.21,.55-.43,.83-.67,.28-.24,.53-.49,.78-.76,.26-.28,.5-.57,.72-.87,.23-.31,.45-.64,.65-.98,.24-.41,.44-.84,.6-1.28,.18-.47,.32-.96,.41-1.45,.11-.52,.17-1.05,.2-1.58,.02-.56,0-1.12-.06-1.68-.1-.91-.34-1.8-.71-2.64-.4-.98-.86-1.93-1.37-2.86-.49-.9-.98-1.71-1.35-2.28-.18-.32-.4-.62-.65-.9,0,.1,0,.2,0,.3-.02,.28-.06,.56-.12,.84-.09,.42-.22,.84-.38,1.24-.21,.54-.47,1.05-.78,1.54-.17,.27-.34,.52-.51,.78-.16,.25-.32,.51-.46,.77-.15,.27-.28,.55-.39,.84-.12,.32-.22,.65-.29,.99"/><polygon class="cls-1" points="90.47 30.72 90.42 30.66 90.37 30.62 90.34 30.61 90.33 30.62 90.33 30.62 90.37 30.64 90.4 30.67 90.44 30.69 90.47 30.72"/><path class="cls-1" d="M46.01,79.01c1.59,.05,3.17-.04,4.74-.25,1.56-.21,3.11-.56,4.62-1.02,1.5-.46,2.96-1.04,4.36-1.73,1.39-.69,2.72-1.49,3.98-2.4-1.39,.64-2.82,1.19-4.29,1.65-1.44,.46-2.91,.82-4.4,1.09-1.47,.27-2.96,.43-4.45,.5-1.49,.07-2.97,.03-4.45-.12-.37-.02-.74-.05-1.11-.1-.37-.04-.73-.1-1.1-.16-.36-.06-.73-.13-1.09-.19-.36-.07-.72-.14-1.09-.19-.18-.04-.36-.08-.54-.12-.18-.05-.35-.1-.53-.15l-.53-.16c-.18-.05-.35-.1-.53-.15l-1.06-.3-1.02-.41c-.69-.24-1.37-.51-2.04-.81-.67-.3-1.33-.62-1.97-.97-.65-.35-1.28-.72-1.89-1.12-.62-.39-1.22-.81-1.81-1.24-.6-.41-1.19-.85-1.75-1.32-.56-.47-1.11-.96-1.63-1.47-.53-.51-1.03-1.04-1.52-1.58-.49-.55-.96-1.1-1.42-1.68-.17-.2-.33-.4-.49-.61-.16-.21-.32-.42-.47-.63-.15-.21-.3-.43-.45-.65-.15-.22-.29-.44-.43-.66,.81-.33,1.6-.74,2.34-1.21,.71-.45,1.39-.96,2.04-1.51,.64-.55,1.26-1.13,1.86-1.75,.61-.62,1.21-1.26,1.82-1.94,1.05-1.13,1.96-2.07,2.74-2.86,.78-.78,1.42-1.4,1.94-1.87,.51-.47,.9-.8,1.15-1.02,.26-.21,.38-.31,.38-.31,0,0-.15-.25-.44-.61-.37-.47-.78-.92-1.22-1.32-.55-.51-1.18-.93-1.85-1.24-.73-.34-1.55-.48-2.35-.39-.27-1.17-.68-2.29-1.23-3.35-.51-.97-1.11-1.89-1.8-2.75-.58-.72-1.23-1.39-1.94-2-.49-.44-1.05-.81-1.64-1.11l-.72-.32-.54,.58c-.09,.09-.17,.18-.26,.28-.09,.09-.17,.19-.25,.3-.08,.1-.17,.21-.25,.31-.08,.11-.17,.21-.25,.33-.04-.09-.09-.19-.14-.29-.05-.1-.1-.19-.15-.28-.05-.09-.1-.18-.16-.28-.06-.09-.12-.18-.18-.28-.33-.49-.71-.94-1.14-1.34-.42-.4-.88-.76-1.37-1.08-.46-.29-.96-.54-1.48-.73-.48-.17-.98-.28-1.48-.31l-1.07-.07-.1,1.07v.12s-.03,.12-.03,.12l-.02,.12-.03,.12c-.32-.29-.67-.53-1.06-.71-.4-.19-.82-.34-1.26-.45-.46-.12-.92-.21-1.38-.28-.47-.08-.96-.14-1.44-.19l-.96-.12-.53,.81c-.26,.41-.53,.81-.78,1.22-.25,.4-.47,.82-.67,1.24-.19,.4-.35,.82-.46,1.26-.11,.41-.16,.84-.14,1.27l-.1-.06-.1-.06-.1-.07-.1-.07-.88-.61-.64,.87c-.3,.41-.54,.86-.71,1.34-.19,.52-.32,1.06-.39,1.6-.08,.58-.1,1.16-.06,1.74,.04,.59,.13,1.17,.29,1.73,.03,.11,.06,.21,.1,.31,.03,.1,.07,.2,.11,.3,.04,.1,.08,.2,.12,.29,.04,.1,.09,.19,.14,.29-.14-.01-.27-.02-.41-.02s-.27,0-.4-.01h-.39c-.13,0-.26,0-.38,.01l-.79,.04-.21,.76c-.12,.5-.19,1-.22,1.51-.03,.48-.01,.97,.03,1.45,.04,.48,.11,.96,.19,1.44,.08,.48,.18,.98,.28,1.48,.14,.76,.36,1.49,.66,2.2,.3,.7,.65,1.38,1.07,2.02,.42,.64,.88,1.25,1.39,1.82,.51,.57,1.04,1.12,1.61,1.63,.68,.61,1.43,1.13,2.24,1.55,.81,.43,1.67,.76,2.56,.99,.89,.24,1.81,.37,2.73,.4,.91,.03,1.83-.04,2.73-.22,.31-.06,.61-.13,.91-.2,.3-.07,.6-.15,.9-.23,.3-.08,.6-.17,.9-.26,.3-.09,.59-.18,.89-.28,.56,.98,1.16,1.94,1.82,2.86,1.32,1.84,2.83,3.54,4.51,5.06,.84,.76,1.72,1.48,2.64,2.14,2.6,1.88,5.48,3.36,8.52,4.38,1.52,.51,3.07,.9,4.65,1.17,1.57,.27,3.16,.41,4.76,.42m-15.69-30.77c.32-.03,.65-.03,.97,.02,.31,.04,.62,.11,.91,.22,.29,.1,.57,.23,.84,.38,.27,.15,.52,.31,.77,.5-.44,.21-.85,.44-1.23,.68-.38,.24-.74,.48-1.07,.74-.34,.25-.65,.52-.95,.79-.3,.27-.59,.55-.86,.83,.13-.38,.23-.75,.32-1.11,.09-.36,.15-.71,.2-1.06,.05-.35,.08-.68,.1-1.01,.02-.33,.02-.65,0-.95m-7.11-8.96c.48,.36,.92,.77,1.33,1.2,.53,.56,1.01,1.16,1.45,1.8,.49,.71,.92,1.48,1.27,2.27,.37,.85,.63,1.74,.77,2.65,.09,.56,.12,1.13,.11,1.69-.01,.56-.08,1.12-.2,1.67-.12,.56-.29,1.11-.5,1.64-.23,.56-.49,1.09-.8,1.61,0-.13,0-.26-.01-.4,0-.13-.02-.27-.03-.4-.01-.13-.03-.27-.04-.4-.02-.13-.04-.27-.06-.4-.03-.17-.06-.33-.1-.5-.04-.16-.08-.33-.12-.49-.04-.16-.09-.32-.15-.48-.05-.16-.11-.31-.17-.46,.02-.63,0-1.26-.05-1.89-.05-.6-.15-1.2-.29-1.78-.14-.59-.32-1.16-.55-1.72-.24-.59-.53-1.17-.85-1.72,.11,.39,.2,.78,.27,1.18,.12,.75,.16,1.52,.12,2.28-.02,.38-.07,.75-.13,1.13-.22-.27-.47-.52-.72-.76-.25-.23-.52-.45-.8-.64-.28-.19-.56-.36-.86-.5-.29-.14-.6-.26-.91-.35-.08-.64-.06-1.3,.05-1.94,.11-.6,.28-1.18,.51-1.74,.21-.51,.46-.99,.75-1.46,.23-.38,.49-.74,.76-1.09m-7.79,12.56c-.21-.12-.44-.23-.67-.34-.23-.11-.47-.21-.72-.3-.25-.09-.51-.18-.78-.26s-.55-.16-.85-.23c-.32-.63-.6-1.27-.83-1.94-.19-.53-.29-1.09-.3-1.65,0-.51,.11-1.01,.34-1.47,.29-.54,.68-1.03,1.14-1.44,.61-.09,1.23-.07,1.83,.06,.5,.12,.96,.35,1.35,.68,.42,.37,.78,.8,1.06,1.28,.36,.6,.68,1.23,.95,1.88-.13,.28-.26,.54-.37,.8-.11,.26-.21,.51-.3,.77-.09,.25-.17,.5-.23,.74-.06,.24-.12,.49-.17,.73l-3.22-4.98,1.76,5.66Zm-6.59-16.04c.52,.06,.98,.13,1.4,.2,.38,.06,.74,.15,1.11,.27,.29,.09,.56,.23,.81,.4,.21,.15,.39,.36,.51,.59l-.07,.08-.06,.08-.07,.08-.07,.08-.08,.09-.08,.09-.08,.1-.08,.1-1.03-.99,.16,2.24-.11,.21-.1,.22-.09,.23-.08,.23-.23-.09-.23-.08-.23-.06-.23-.06-1.62-1.55,.1,1.42h-.9c-.1-.24-.15-.5-.13-.77,.03-.3,.1-.6,.21-.88,.14-.35,.31-.69,.51-1.02,.21-.37,.46-.77,.74-1.21m-4.26,5.6c.29,.12,.59,.21,.89,.28,.29,.06,.57,.11,.86,.14,.28,.03,.55,.04,.83,.05,.28,0,.52,0,.77,0,.34,0,.66,0,.94,.01,.26,0,.53,.05,.79,.12,.24,.06,.46,.17,.66,.32,.23,.17,.42,.38,.58,.62-.1,.11-.2,.22-.3,.33-.09,.11-.18,.22-.27,.33-.08,.11-.16,.22-.24,.33-.07,.11-.15,.22-.21,.33-.28-.07-.56-.12-.85-.16-.28-.04-.57-.08-.84-.15-.27-.06-.52-.17-.76-.31-.25-.16-.45-.37-.59-.63,.07,.3,.22,.58,.43,.8,.2,.2,.43,.37,.68,.49,.25,.14,.52,.24,.78,.36,.26,.11,.5,.25,.73,.41l-.09,.25-.08,.25-.07,.25-.05,.25c-.32-.11-.64-.2-.95-.3-.31-.1-.61-.22-.9-.36-.29-.15-.56-.34-.79-.58-.27-.28-.48-.6-.64-.96,.05,.48,.2,.94,.45,1.35,.22,.34,.49,.65,.81,.9,.31,.25,.65,.48,.98,.72,.35,.24,.67,.51,.97,.82,.01,.15,.03,.3,.06,.46,.02,.15,.05,.3,.09,.46,.03,.15,.07,.3,.12,.46,.04,.15,.09,.31,.14,.46-.2-.19-.41-.36-.63-.53-.22-.17-.44-.32-.67-.46-.23-.14-.46-.27-.71-.4-.24-.12-.49-.23-.73-.33-.33-.13-.63-.31-.91-.53-.25-.2-.47-.43-.65-.69-.17-.23-.32-.49-.44-.75-.11-.24-.2-.48-.28-.73-.09-.32-.15-.65-.19-.98-.04-.32-.05-.65-.03-.97,.01-.3,.05-.6,.1-.9,.05-.27,.12-.54,.21-.79m.68,16.43c-.61-.7-1.12-1.47-1.54-2.29-.39-.78-.71-1.59-.94-2.43-.21-.74-.36-1.5-.45-2.26-.07-.59-.1-1.19-.07-1.79,.44,.01,.88,.05,1.32,.12,.54,.08,1.08,.2,1.6,.36,.58,.18,1.13,.42,1.66,.72,.56,.32,1.08,.73,1.52,1.21-.13,.3-.24,.61-.32,.93-.08,.32-.14,.65-.17,.98-.03,.34-.04,.68-.02,1.02,.02,.35,.06,.7,.12,1.05-.33-.19-.64-.4-.95-.62-.62-.45-1.18-.98-1.68-1.56-.26-.31-.51-.63-.73-.96,.21,.6,.47,1.19,.77,1.76,.28,.54,.61,1.05,.97,1.53,.36,.48,.75,.94,1.18,1.36,.45,.44,.92,.86,1.42,1.24,.08,.14,.16,.29,.25,.43s.18,.28,.28,.41c.09,.14,.19,.28,.29,.42,.1,.14,.21,.27,.32,.4,.09,.1,.18,.21,.28,.31,.09,.1,.18,.2,.28,.29,.09,.09,.19,.18,.29,.28,.1,.09,.2,.18,.29,.27-.59-.09-1.18-.23-1.75-.42-.55-.18-1.08-.4-1.58-.67-.5-.26-.97-.57-1.41-.92-.44-.35-.86-.74-1.23-1.17m11.82,3.15c-1.2,0-2.39-.32-3.42-.94-.4-.24-.78-.52-1.13-.83-.27-.24-.52-.5-.75-.77-.37-.44-.69-.93-.95-1.45-.25-.49-.44-1.01-.58-1.55-.12-.5-.18-1.01-.18-1.53,0-.47,.09-.94,.24-1.38,.96,.14,1.9,.36,2.82,.66,.75,.25,1.45,.64,2.06,1.15,.67,.59,1.25,1.27,1.72,2.03,.67,1.06,1.27,2.16,1.81,3.29-.64-.18-1.26-.42-1.85-.71-.6-.29-1.17-.63-1.72-1.02-.55-.38-1.06-.8-1.55-1.26-.48-.45-.92-.94-1.33-1.45,.53,1.15,1.2,2.23,2.01,3.2,.4,.49,.84,.95,1.31,1.38,.46,.43,.96,.83,1.48,1.19m.67-17.35c-.04-.42-.04-.85,0-1.27,.03-.42,.08-.82,.08-1.22,.01-.41-.05-.81-.17-1.2-.16-.45-.41-.87-.75-1.21,.17,.35,.28,.72,.32,1.11,.03,.33,0,.66-.07,.98-.08,.31-.18,.62-.3,.92-.12,.3-.26,.61-.38,.92l-.23-.12-.23-.11-.24-.1-.25-.09c.02-.28,.08-.55,.16-.82,.08-.28,.16-.55,.23-.83,.07-.27,.09-.56,.06-.84-.04-.31-.15-.6-.33-.84,.1,.27,.14,.57,.1,.86-.04,.27-.12,.53-.25,.78-.12,.25-.28,.5-.42,.74-.15,.24-.3,.49-.42,.75-.13-.02-.25-.04-.38-.05-.13-.01-.27-.02-.4-.03-.14,0-.28,0-.41,0-.14,0-.29,.01-.44,.02-.08-.27-.12-.56-.11-.84,.01-.25,.08-.49,.18-.71,.11-.24,.25-.47,.41-.68,.17-.23,.37-.47,.6-.73,.16-.19,.32-.38,.49-.59,.17-.21,.33-.43,.49-.66,.16-.24,.31-.49,.45-.75,.14-.28,.26-.57,.35-.86,.25,.1,.5,.21,.73,.34,.26,.15,.52,.32,.76,.5,.26,.2,.5,.42,.72,.65,.23,.25,.45,.51,.64,.79,.15,.21,.28,.44,.39,.68,.12,.26,.22,.54,.29,.82,.08,.31,.11,.62,.11,.94,0,.35-.07,.7-.17,1.04-.08,.26-.15,.52-.21,.78-.06,.26-.11,.53-.15,.8-.04,.27-.06,.54-.08,.81-.01,.27-.01,.55,0,.83-.09-.14-.17-.27-.26-.4-.09-.13-.18-.26-.28-.38-.09-.12-.19-.25-.29-.36-.1-.12-.21-.23-.31-.34m2.96,4.05c.44,.17,.85,.4,1.22,.7,.4,.33,.76,.7,1.06,1.12,.33,.45,.6,.93,.82,1.44,.23,.53,.4,1.09,.5,1.66,.06,.35,.1,.71,.11,1.07,.01,.47-.02,.94-.09,1.4-.19,1.19-.7,2.3-1.48,3.22,.06-.63,.07-1.27,.04-1.9-.03-.63-.1-1.26-.22-1.89-.11-.62-.27-1.24-.46-1.84-.19-.6-.42-1.19-.69-1.75,.13,.64,.22,1.3,.26,1.95,.04,.66,.03,1.33-.02,1.99-.05,.66-.16,1.32-.32,1.97-.16,.64-.37,1.27-.64,1.87-.52-1.14-.98-2.31-1.36-3.5-.28-.85-.43-1.73-.45-2.63,0-.79,.15-1.58,.44-2.32,.36-.9,.79-1.77,1.31-2.59"/><path class="cls-1" d="M66.15,16.76c.27,.1,.57,.14,.86,.11,.32-.03,.64-.08,.95-.14,.36-.07,.73-.12,1.09-.14,.43-.02,.87,.03,1.29,.14,.5,.13,.99,.31,1.47,.52,.39,.17,.76,.38,1.12,.61,.29,.19,.56,.4,.82,.63,.2,.18,.38,.38,.55,.59-.03-.14-.07-.28-.12-.42-.05-.14-.1-.29-.16-.43-.06-.14-.13-.29-.21-.43-.08-.14-.17-.28-.26-.42-.37-.51-.81-.96-1.3-1.35-.43-.34-.9-.63-1.4-.86-.42-.19-.85-.35-1.3-.46-.33-.08-.67-.14-1.01-.18-.34-.03-.68-.04-1.02-.01-.3,.02-.6,.07-.9,.15-.28,.07-.56,.16-.84,.26-.28,.1-.55,.21-.84,.32-.51,.2-1.02,.37-1.55,.51-.39,.11-.78,.19-1.17,.26-.32,.05-.57,.08-.74,.09h-.26c.24,.17,.47,.35,.67,.55,.39,.34,.93,.81,1.52,1.32,.59,.5,1.23,1.05,1.84,1.52,.52,.42,1.07,.81,1.64,1.17,.38,.19,.77,.37,1.17,.52,.4,.15,.8,.28,1.2,.39,.4,.11,.81,.19,1.22,.26,.4,.06,.81,.11,1.22,.13,.35,.02,.7,.02,1.05,.02,.35,0,.69-.02,1.03-.04,.34-.02,.68-.06,1.02-.1,.34-.04,.67-.09,1-.14l.32-.08,.6-.14c.21-.05,.43-.1,.59-.13,.09-.03,.18-.04,.28-.03,0,0-.07-.09-.18-.22l-.41-.47-.42-.46c-.11-.13-.19-.21-.19-.21-1.66,.4-3.37,.48-5.06,.23-1.16-.18-2.26-.61-3.25-1.24-.67-.44-1.26-.98-1.77-1.6-.39-.47-.58-.81-.65-.84v.05s.03,.05,.03,.05v.05s.03,.05,.03,.05l-.04-.09-.03-.08-.02-.06v-.04l.1,.07,.12,.07,.14,.07,.16,.06"/><path class="cls-1" d="M16.16,12.46l.2,.07,.17,.12,.13,.14,.07,.12c.09,.33,.24,.65,.43,.93,.18,.26,.4,.49,.66,.67,.27,.18,.57,.32,.89,.4,.36,.09,.74,.14,1.11,.14,.43,0,.86-.07,1.26-.21,.37-.13,.72-.32,1.03-.57,.29-.23,.52-.52,.69-.85,.17-.32,.26-.68,.26-1.05,0-.41-.08-.82-.24-1.19-.17-.4-.42-.76-.74-1.06-.36-.34-.79-.6-1.26-.77-.58-.2-1.19-.3-1.81-.29-.85,0-1.69,.15-2.49,.44-.76,.27-1.46,.67-2.09,1.19-.59,.48-1.07,1.06-1.44,1.73-.34,.63-.53,1.34-.53,2.06,0,1.14,.36,2.25,1.05,3.15,.28,.37,.6,.7,.95,1,.29,.24,.6,.46,.92,.66-.1,.21-.17,.42-.22,.64-.05,.25-.08,.5-.08,.75,0,.27,.03,.55,.09,.82,.07,.29,.17,.58,.3,.85,.14,.27,.3,.52,.5,.75,.26,.31,.57,.57,.91,.78,.44,.28,.93,.48,1.43,.61,.67,.17,1.37,.26,2.07,.25,.6,0,1.2-.06,1.79-.16,.62-.1,1.28-.24,1.96-.41,.68-.17,1.38-.38,2.12-.61,.74-.23,1.5-.48,2.29-.73,.69-.23,1.4-.46,2.12-.69,.73-.23,1.47-.46,2.24-.67,.76-.22,1.54-.42,2.33-.61,.79-.19,1.6-.35,2.41-.49-.02,.11-.03,.21-.03,.32,0,.11,0,.22,.02,.32,.02,.11,.04,.22,.07,.33,.03,.11,.07,.22,.12,.32,.11,.23,.26,.45,.43,.64,.18,.2,.38,.37,.6,.51,.23,.15,.49,.27,.75,.37,.28,.1,.57,.16,.86,.2l.2,.02,.14-.15c.11-.12,.23-.24,.36-.34,.15-.12,.31-.23,.47-.33,.17-.11,.36-.21,.56-.31,.2-.1,.42-.2,.65-.29,.98-.39,2.01-.63,3.06-.71,1.03-.08,2.08,0,3.09,.21,1.01,.22,1.98,.58,2.88,1.08,.9,.5,1.71,1.13,2.41,1.89,.51,.54,.94,1.14,1.31,1.79,.38,.69,.69,1.41,.93,2.17,.26,.83,.44,1.69,.55,2.56,.13,.98,.19,1.98,.18,2.97,0,.9-.1,1.79-.32,2.66-.2,.84-.55,1.65-1.03,2.37-.47,.71-1.12,1.29-1.87,1.7-.87,.45-1.85,.67-2.83,.65-.59,0-1.17-.05-1.75-.18-.45-.1-.87-.28-1.25-.54-.33-.23-.59-.54-.75-.91-.18-.4-.26-.83-.25-1.26v-4.7c.02-.6,.14-1.2,.35-1.77,.19-.53,.48-1.02,.85-1.45,.4-.46,.86-.85,1.38-1.16,.6-.37,1.24-.67,1.91-.89l.26-.09v-1.51h-19.16v1.62h.39c.49,.03,.97,.2,1.37,.49,.53,.35,1,.78,1.41,1.27,.44,.53,.82,1.11,1.11,1.74,.28,.6,.44,1.24,.48,1.9v28.94c-.02,.59-.18,1.17-.48,1.68-.32,.56-.71,1.06-1.18,1.51-.45,.44-.94,.84-1.47,1.18-.43,.29-.88,.52-1.36,.7l-.26,.09v1.51h19.58c2.3,.02,4.6-.33,6.79-1.02,1.93-.61,3.74-1.58,5.31-2.86,1.46-1.19,2.64-2.7,3.46-4.4,.83-1.76,1.25-3.68,1.23-5.63,.01-1.62-.21-3.24-.66-4.8-.41-1.41-1.06-2.73-1.92-3.92-.85-1.16-1.91-2.15-3.11-2.93-1.29-.84-2.72-1.47-4.21-1.86,1-.52,1.92-1.16,2.75-1.91,.8-.72,1.49-1.56,2.05-2.47,.56-.91,.99-1.89,1.28-2.92,.3-1.07,.45-2.17,.44-3.28,.03-2.07-.53-4.1-1.61-5.87-1.17-1.82-2.76-3.33-4.65-4.39-2.31-1.31-4.82-2.24-7.42-2.76-3.27-.66-6.59-.98-9.92-.95-1.09,0-2.09,.02-3.02,.05-.93,.03-1.78,.08-2.59,.14-.81,.06-1.56,.12-2.29,.19-.73,.07-1.43,.14-2.12,.21-.7,.07-1.37,.14-2.06,.21-.69,.07-1.4,.13-2.15,.18-.74,.05-1.52,.09-2.37,.12-.85,.03-1.75,.05-2.73,.05-1.24,.01-2.47-.13-3.67-.42-.86-.2-1.69-.55-2.44-1.02-.54-.34-1.01-.79-1.35-1.33-.26-.4-.4-.86-.42-1.33,0-.16,.01-.32,.04-.48,.03-.16,.07-.32,.12-.47,.05-.16,.12-.31,.19-.46,.08-.15,.17-.3,.28-.44l.14-.14,.14-.07,.12-.02h.1m26.07,53.16c-.15-1.44-.28-2.87-.38-4.31-.1-1.44-.18-2.87-.24-4.31-.06-1.44-.1-2.87-.12-4.31s-.04-2.87-.04-4.31c0-1.44,.02-2.87,.05-4.31,.02-1.44,.07-2.87,.12-4.31,.06-1.44,.14-2.87,.23-4.31,.1-1.44,.22-2.87,.38-4.31,.15,1.44,.28,2.87,.38,4.31s.18,2.87,.24,4.31c.06,1.44,.1,2.87,.12,4.31s.04,2.87,.05,4.31c0,1.44-.02,2.87-.04,4.31s-.07,2.87-.12,4.31-.14,2.87-.24,4.31c-.1,1.44-.23,2.87-.38,4.31m10.18,.6h-5.17v-21.58h5.03c1.32-.04,2.61,.36,3.67,1.14,.94,.75,1.67,1.72,2.12,2.83,.49,1.15,.81,2.36,.98,3.59,.16,1.14,.24,2.3,.24,3.46,0,1.3-.13,2.6-.4,3.87-.25,1.18-.67,2.32-1.24,3.38-.51,.95-1.25,1.77-2.13,2.4-.91,.61-1.98,.92-3.07,.91m7.97-20.55c.25,.15,.48,.31,.71,.48,.23,.17,.45,.36,.66,.55,.42,.4,.79,.84,1.12,1.32s.6,.98,.84,1.51c.23,.52,.43,1.06,.58,1.62,.15,.55,.27,1.11,.35,1.67,.08,.56,.13,1.12,.15,1.69,.02,.55,.01,1.12-.03,1.69-.04,.56-.1,1.13-.19,1.69-.09,.56-.22,1.11-.39,1.66-.17,.54-.37,1.08-.61,1.59-.23,.52-.5,1.02-.82,1.49-.31,.47-.67,.92-1.06,1.33-.39,.41-.81,.77-1.27,1.1-.45,.32-.94,.59-1.45,.8,.42-.33,.81-.71,1.17-1.11,.35-.39,.67-.81,.95-1.25,.28-.44,.54-.89,.76-1.36,.22-.47,.42-.95,.58-1.44,.16-.49,.3-.98,.41-1.48,.11-.5,.2-1.01,.26-1.52,.06-.51,.1-1.03,.12-1.54,.02-.52,.02-1.04,0-1.56-.01-.52-.05-1.03-.11-1.54-.06-.51-.15-1.01-.26-1.51-.11-.5-.25-.98-.42-1.46-.17-.48-.37-.94-.6-1.39-.24-.45-.51-.87-.83-1.27-.32-.4-.67-.77-1.06-1.11-.39-.34-.82-.65-1.27-.92-.46-.27-.95-.51-1.46-.69,.27,.02,.55,.05,.82,.1,.27,.05,.54,.12,.81,.21,.27,.09,.53,.19,.79,.3,.26,.11,.51,.24,.76,.38m.64-19.03c.2,.38,.38,.78,.53,1.19,.15,.4,.27,.82,.37,1.23,.1,.42,.18,.83,.24,1.26,.06,.43,.1,.85,.14,1.27,.02,.43,.02,.86,0,1.29-.02,.43-.07,.86-.14,1.29-.07,.43-.16,.85-.29,1.26-.12,.42-.27,.82-.44,1.22-.17,.4-.37,.78-.6,1.15-.23,.36-.49,.71-.77,1.03-.28,.32-.59,.61-.92,.88-.33,.26-.68,.49-1.06,.67,.52-.61,.98-1.28,1.35-1.99,.18-.34,.34-.7,.48-1.06,.14-.36,.26-.72,.37-1.09,.1-.37,.18-.74,.25-1.12,.07-.38,.12-.76,.16-1.14,.04-.38,.06-.76,.07-1.15,0-.38,0-.77-.03-1.15-.02-.39-.05-.77-.09-1.16-.04-.39-.1-.77-.16-1.15-.07-.38-.15-.76-.24-1.13-.09-.37-.2-.74-.33-1.1-.13-.36-.27-.71-.44-1.06-.17-.35-.36-.68-.57-1-.22-.33-.46-.64-.72-.93-.27-.3-.57-.58-.88-.84,.4,.12,.79,.29,1.15,.5,.37,.22,.71,.48,1.02,.77,.32,.3,.61,.62,.87,.97,.26,.35,.49,.72,.69,1.11"/></g></g></svg>